name analog
datacolumns 19
datarows 27
range 0.0 0.013000000000000001
endheader
time	ground_force_vx	ground_force_vy	ground_force_vz	ground_force_px	ground_force_py	ground_force_pz	l_ground_force_vx	l_ground_force_vy	l_ground_force_vz	l_ground_force_px	l_ground_force_py	l_ground_force_pz	ground_torque_x	ground_torque_y	ground_torque_z	l_ground_torque_x	l_ground_torque_y	l_ground_torque_z
0.0	-0.0	-0.0	-0.0	0.9452771544456482	21.91510009765625	-341.878173828125	-2.104599952697754	-23.219518661499023	-282.9694519042969	-0.0	-0.0	-0.0	-0.0	-0.0	-0.0	92764.1015625	495.0877685546875	-3159.961669921875
0.0005	-0.0	-0.0	-0.0	0.7639293670654297	21.544456481933597	-341.3261108398437	-2.172420024871826	-22.875316619873047	-282.56024169921875	-0.0	-0.0	-0.0	-0.0	-0.0	-0.0	92851.859375	469.0207824707031	-3181.40771484375
0.001	-0.0	-0.0	-0.0	1.1460164785385132	21.695261001586918	-341.5793151855469	-1.7496436834335327	-23.33185386657715	-283.548828125	-0.0	-0.0	-0.0	-0.0	-0.0	-0.0	92584.328125	440.6512756347656	-3100.447509765625
0.0015	-0.0	-0.0	-0.0	1.210163116455078	21.63157081604004	-340.1123046875	-2.0305733680725098	-22.86053466796875	-280.65948486328125	-0.0	-0.0	-0.0	-0.0	-0.0	-0.0	92747.1015625	366.2109069824219	-3069.183837890625
0.002	-0.0	-0.0	-0.0	1.363434672355652	21.83694839477539	-341.4249572753906	-1.7842447757720947	-22.669490814208984	-281.62872314453125	-0.0	-0.0	-0.0	-0.0	-0.0	-0.0	92498.9375	506.0330505371094	-3057.522216796875
0.0025	-0.0	-0.0	-0.0	1.2489471435546875	21.98881721496582	-340.4654541015625	-1.7349886894226074	-23.1258602142334	-282.5206604003906	-0.0	-0.0	-0.0	-0.0	-0.0	-0.0	92657.015625	373.5296325683594	-3092.16796875
0.003	-0.0	-0.0	-0.0	1.337586760520935	22.12972450256348	-340.5660400390625	-1.877194166183472	-22.9105224609375	-282.114501953125	-0.0	-0.0	-0.0	-0.0	-0.0	-0.0	92304.328125	300.6174621582031	-3070.84814453125
0.0035	-0.0	-0.0	-0.0	1.223499774932861	21.92607879638672	-342.1815490722656	-1.7352137565612793	-22.77290916442871	-281.72320556640625	-0.0	-0.0	-0.0	-0.0	-0.0	-0.0	92489.2890625	182.720947265625	-2994.775390625
0.004	-0.0	-0.0	-0.0	1.4911856651306152	22.12982177734375	-340.868896484375	-1.8380151987075808	-23.101564407348636	-280.7178955078125	-0.0	-0.0	-0.0	-0.0	-0.0	-0.0	92591.140625	227.8576812744141	-3096.90869140625
0.0045000000000000005	-0.0	-0.0	-0.0	1.5546340942382812	22.04076385498047	-338.902099609375	-1.660521149635315	-22.823043823242188	-282.7244567871094	-0.0	-0.0	-0.0	-0.0	-0.0	-0.0	92463.5625	111.05734252929688	-3063.221923828125
0.005	-0.0	-0.0	-0.0	1.528934359550476	21.964017868041992	-341.47247314453125	-1.876564383506775	-22.925146102905277	-282.06085205078125	-0.0	-0.0	-0.0	-0.0	-0.0	-0.0	92703.96875	142.39401245117188	-3054.185791015625
0.0055	-0.0	-0.0	-0.0	1.4517794847488403	21.87478828430176	-340.96856689453125	-1.5485508441925049	-22.785099029541016	-281.9171142578125	-0.0	-0.0	-0.0	-0.0	-0.0	-0.0	92356.0	285.68524169921875	-2990.0615234375
0.006	-0.0	-0.0	-0.0	1.3896214962005615	21.60726928710937	-340.2684631347656	-1.5967941284179688	-22.862075805664062	-282.7138671875	-0.0	-0.0	-0.0	-0.0	-0.0	-0.0	92709.765625	266.611328125	-3083.596923828125
0.006500000000000001	-0.0	-0.0	-0.0	1.4155254364013672	21.494359970092773	-340.16748046875	-1.4314390420913696	-22.862245559692383	-282.0628662109375	-0.0	-0.0	-0.0	-0.0	-0.0	-0.0	92492.671875	175.6166534423828	-2977.263916015625
0.007	-0.0	-0.0	-0.0	1.3872681856155396	21.684526443481445	-340.9210510253906	-1.9903686046600344	-22.976491928100582	-282.362060546875	-0.0	-0.0	-0.0	-0.0	-0.0	-0.0	92395.7421875	219.38461303710935	-3011.7685546875
0.0075	-0.0	-0.0	-0.0	1.010121464729309	21.35102653503418	-340.7731018066406	-1.229163646697998	-22.812191009521484	-282.91241455078125	-0.0	-0.0	-0.0	-0.0	-0.0	-0.0	92698.328125	303.1386108398437	-2913.83349609375
0.008	-0.0	-0.0	-0.0	0.9440270066261292	21.264911651611328	-339.96466064453125	-1.2545664310455322	-22.77443504333496	-281.01739501953125	-0.0	-0.0	-0.0	-0.0	-0.0	-0.0	92987.234375	209.78921508789065	-2990.044677734375
0.0085	-0.0	-0.0	-0.0	1.0184584856033323	21.40620803833008	-341.27490234375	-1.2041152715682983	-23.29159927368164	-283.0618591308594	-0.0	-0.0	-0.0	-0.0	-0.0	-0.0	92885.1484375	212.7727813720703	-3019.8525390625
0.009000000000000001	-0.0	-0.0	-0.0	0.8921051025390625	21.302165985107425	-339.69940185546875	-0.912585973739624	-23.05195999145508	-281.8173217773437	-0.0	-0.0	-0.0	-0.0	-0.0	-0.0	92672.890625	62.58433151245117	-2964.388671875
0.0095	-0.0	-0.0	-0.0	0.9921512007713318	21.706439971923828	-339.75909423828125	-1.1908949613571167	-22.686599731445312	-283.1619873046875	-0.0	-0.0	-0.0	-0.0	-0.0	-0.0	92993.6328125	88.9360122680664	-2862.8935546875
0.01	-0.0	-0.0	-0.0	0.9551271200180054	21.401931762695312	-339.09490966796875	-0.8120517730712891	-22.98740768432617	-283.5111083984375	-0.0	-0.0	-0.0	-0.0	-0.0	-0.0	92953.46875	68.4994125366211	-2930.03271484375
0.0105	-0.0	-0.0	-0.0	0.7294567823410034	21.48042678833008	-338.9488525390625	-0.9758186340332032	-22.67524528503418	-283.6667175292969	-0.0	-0.0	-0.0	-0.0	-0.0	-0.0	92955.359375	117.6181869506836	-3015.032470703125
0.011	-0.0	-0.0	-0.0	1.1070992946624756	21.218839645385746	-338.82135009765625	-1.0015394687652588	-23.177387237548828	-284.3106384277344	-0.0	-0.0	-0.0	-0.0	-0.0	-0.0	92983.578125	223.36289978027344	-2926.1376953125
0.0115	-0.0	-0.0	-0.0	1.1333765983581543	21.433847427368164	-338.53094482421875	-1.253376007080078	-23.191579818725582	-282.9142150878906	-0.0	-0.0	-0.0	-0.0	-0.0	-0.0	93132.4140625	192.0544891357422	-2910.03759765625
0.012	-0.0	-0.0	-0.0	1.2026147842407229	21.249378204345703	-337.6142883300781	-1.2790231704711914	-22.71317672729492	-282.62261962890625	-0.0	-0.0	-0.0	-0.0	-0.0	-0.0	93097.1328125	20.16541290283203	-2947.181396484375
0.0125	-0.0	-0.0	-0.0	1.4273681640625	21.111452102661133	-338.34637451171875	-1.153240203857422	-22.81277275085449	-284.2679138183594	-0.0	-0.0	-0.0	-0.0	-0.0	-0.0	93133.9609375	56.86495590209961	-2952.012451171875
0.013000000000000001	-0.0	-0.0	-0.0	1.632321000099182	21.381689071655277	-337.6781005859375	-1.1122874021530151	-22.849496841430664	-284.1073608398437	-0.0	-0.0	-0.0	-0.0	-0.0	-0.0	93179.609375	-13.502963066101074	-2917.31982421875
